# xmcd CD database file
#
# Track frame offsets:
#	150
#	14920
#	24597
#	41320
#	54270
#	70797
#	80162
#	89632
#	102382
#	116920
#
# Disc length: 1722 seconds
#
# Revision: 1
# Processed by: cddbd v1.5.2PL0 Copyright (c) Steve Scherf et al.
# Submitted via: CDex 1.70beta2
#
DISCID=8706b80a
DTITLE=Larry Butler - Only The Dead Are Free
DYEAR=1997
DGENRE=Country
TTITLE0=Only The Dead Are Free
TTITLE1=I´m Not Wanted Anymore
TTITLE2=My Mama´ Waltz
TTITLE3=Old Gladys
TTITLE4=The Difference Between Men And Boys
TTITLE5=Thinking Houston
TTITLE6=Big Balls In Cowtown
TTITLE7=Let´s Forever Be Together
TTITLE8=Now His Horse Is Whisky
TTITLE9=Echoes Fade And Die
EXTD=YEAR: 1997
EXTT0=
EXTT1=
EXTT2=
EXTT3=
EXTT4=
EXTT5=
EXTT6=
EXTT7=
EXTT8=
EXTT9=
PLAYORDER=
